<svg xmlns="http://www.w3.org/2000/svg" viewBox="0 0 82.4 105.88"><defs><style>.cls-1{fill:#e0e0e0;}</style></defs><g id="Layer_2" data-name="Layer 2"><g id="Layer_1-2" data-name="Layer 1"><rect class="cls-1" width="5.24" height="5.24"/><rect class="cls-1" x="15.43" width="5.24" height="5.24"/><rect class="cls-1" x="30.86" width="5.24" height="5.24"/><rect class="cls-1" x="46.29" width="5.24" height="5.24"/><rect class="cls-1" x="61.72" width="5.24" height="5.24"/><rect class="cls-1" x="77.15" width="5.24" height="5.24"/><rect class="cls-1" y="14.38" width="5.24" height="5.24"/><rect class="cls-1" x="15.43" y="14.38" width="5.24" height="5.24"/><rect class="cls-1" x="30.86" y="14.38" width="5.24" height="5.24"/><rect class="cls-1" x="46.29" y="14.38" width="5.24" height="5.24"/><rect class="cls-1" x="61.72" y="14.38" width="5.24" height="5.24"/><rect class="cls-1" x="77.15" y="14.38" width="5.24" height="5.24"/><rect class="cls-1" y="28.75" width="5.24" height="5.24"/><rect class="cls-1" x="15.43" y="28.75" width="5.24" height="5.24"/><rect class="cls-1" x="30.86" y="28.75" width="5.24" height="5.24"/><rect class="cls-1" x="46.29" y="28.75" width="5.24" height="5.24"/><rect class="cls-1" x="61.72" y="28.75" width="5.24" height="5.24"/><rect class="cls-1" x="77.15" y="28.75" width="5.24" height="5.24"/><rect class="cls-1" y="43.13" width="5.24" height="5.24"/><rect class="cls-1" x="15.43" y="43.13" width="5.24" height="5.24"/><rect class="cls-1" x="30.86" y="43.13" width="5.24" height="5.24"/><rect class="cls-1" x="46.29" y="43.13" width="5.24" height="5.24"/><rect class="cls-1" x="61.72" y="43.13" width="5.24" height="5.24"/><rect class="cls-1" x="77.15" y="43.13" width="5.24" height="5.24"/><rect class="cls-1" y="57.51" width="5.24" height="5.24"/><rect class="cls-1" x="15.43" y="57.51" width="5.24" height="5.24"/><rect class="cls-1" x="30.86" y="57.51" width="5.24" height="5.24"/><rect class="cls-1" x="46.29" y="57.51" width="5.24" height="5.24"/><rect class="cls-1" x="61.72" y="57.51" width="5.24" height="5.24"/><rect class="cls-1" x="77.15" y="57.51" width="5.24" height="5.24"/><rect class="cls-1" y="71.88" width="5.24" height="5.24"/><rect class="cls-1" x="15.43" y="71.88" width="5.24" height="5.24"/><rect class="cls-1" x="30.86" y="71.88" width="5.24" height="5.24"/><rect class="cls-1" x="46.29" y="71.88" width="5.24" height="5.24"/><rect class="cls-1" x="61.72" y="71.88" width="5.24" height="5.24"/><rect class="cls-1" x="77.15" y="71.88" width="5.24" height="5.24"/><rect class="cls-1" y="86.26" width="5.24" height="5.24"/><rect class="cls-1" x="15.43" y="86.26" width="5.24" height="5.24"/><rect class="cls-1" x="30.86" y="86.26" width="5.24" height="5.24"/><rect class="cls-1" x="46.29" y="86.26" width="5.24" height="5.24"/><rect class="cls-1" x="61.72" y="86.26" width="5.24" height="5.24"/><rect class="cls-1" x="77.15" y="86.26" width="5.24" height="5.24"/><rect class="cls-1" y="100.64" width="5.24" height="5.24"/><rect class="cls-1" x="15.43" y="100.64" width="5.24" height="5.24"/><rect class="cls-1" x="30.86" y="100.64" width="5.24" height="5.24"/><rect class="cls-1" x="46.29" y="100.64" width="5.24" height="5.24"/><rect class="cls-1" x="61.72" y="100.64" width="5.24" height="5.24"/><rect class="cls-1" x="77.15" y="100.64" width="5.24" height="5.24"/></g></g></svg>