<svg width="117" height="117" viewBox="0 0 117 117" fill="none" xmlns="http://www.w3.org/2000/svg"><g opacity="0.4"><mask id="mask0" mask-type="alpha" maskUnits="userSpaceOnUse" x="0" y="0" width="117" height="117"><rect width="117" height="117" fill="#C4C4C4"></rect></mask><g mask="url(#mask0)"><path d="M3.15634 6.14752C4.49286 6.14752 5.57623 5.06406 5.57623 3.72754C5.57623 2.39101 4.49286 1.30756 3.15634 1.30756C1.81982 1.30756 0.736328 2.39101 0.736328 3.72754C0.736328 5.06406 1.81982 6.14752 3.15634 6.14752Z" fill="#2264D7"></path><path d="M33.3644 3.72754C33.3644 5.05853 32.2754 6.14752 30.9444 6.14752C29.6134 6.14752 28.5244 5.05853 28.5244 3.72754C28.5244 2.39654 29.6134 1.30756 30.9444 1.30756C32.2754 1.30756 33.3644 2.39654 33.3644 3.72754Z" fill="#2264D7"></path><path d="M58.7325 6.14752C60.069 6.14752 61.1524 5.06406 61.1524 3.72754C61.1524 2.39101 60.069 1.30756 58.7325 1.30756C57.396 1.30756 56.3125 2.39101 56.3125 3.72754C56.3125 5.06406 57.396 6.14752 58.7325 6.14752Z" fill="#2264D7"></path><path d="M86.5225 6.14752C87.8591 6.14752 88.9426 5.06406 88.9426 3.72754C88.9426 2.39101 87.8591 1.30756 86.5225 1.30756C85.186 1.30756 84.1025 2.39101 84.1025 3.72754C84.1025 5.06406 85.186 6.14752 86.5225 6.14752Z" fill="#2264D7"></path><path d="M114.333 6.14752C115.67 6.14752 116.753 5.06406 116.753 3.72754C116.753 2.39101 115.67 1.30756 114.333 1.30756C112.997 1.30756 111.913 2.39101 111.913 3.72754C111.913 5.06406 112.997 6.14752 114.333 6.14752Z" fill="#2264D7"></path><path d="M3.15634 33.3362C4.49286 33.3362 5.57623 32.2527 5.57623 30.9162C5.57623 29.5797 4.49286 28.4962 3.15634 28.4962C1.81982 28.4962 0.736328 29.5797 0.736328 30.9162C0.736328 32.2527 1.81982 33.3362 3.15634 33.3362Z" fill="#2264D7"></path><path d="M33.3644 30.9162C33.3644 32.2472 32.2754 33.3362 30.9444 33.3362C29.6134 33.3362 28.5244 32.2472 28.5244 30.9162C28.5244 29.5852 29.6134 28.4962 30.9444 28.4962C32.2754 28.4962 33.3644 29.5852 33.3644 30.9162Z" fill="#2264D7"></path><path d="M58.7325 33.3362C60.069 33.3362 61.1524 32.2527 61.1524 30.9162C61.1524 29.5797 60.069 28.4962 58.7325 28.4962C57.396 28.4962 56.3125 29.5797 56.3125 30.9162C56.3125 32.2527 57.396 33.3362 58.7325 33.3362Z" fill="#2264D7"></path><path d="M86.5225 33.3362C87.8591 33.3362 88.9426 32.2527 88.9426 30.9162C88.9426 29.5797 87.8591 28.4962 86.5225 28.4962C85.186 28.4962 84.1025 29.5797 84.1025 30.9162C84.1025 32.2527 85.186 33.3362 86.5225 33.3362Z" fill="#2264D7"></path><path d="M114.333 33.3362C115.67 33.3362 116.753 32.2527 116.753 30.9162C116.753 29.5797 115.67 28.4962 114.333 28.4962C112.997 28.4962 111.913 29.5797 111.913 30.9162C111.913 32.2527 112.997 33.3362 114.333 33.3362Z" fill="#2264D7"></path><path d="M3.15634 60.5178C4.49286 60.5178 5.57623 59.4343 5.57623 58.0978C5.57623 56.7613 4.49286 55.6778 3.15634 55.6778C1.81982 55.6778 0.736328 56.7613 0.736328 58.0978C0.736328 59.4343 1.81982 60.5178 3.15634 60.5178Z" fill="#2264D7"></path><path d="M33.3644 58.0978C33.3644 59.4288 32.2754 60.5178 30.9444 60.5178C29.6134 60.5178 28.5244 59.4288 28.5244 58.0978C28.5244 56.7668 29.6134 55.6778 30.9444 55.6778C32.2754 55.698 33.3644 56.7668 33.3644 58.0978Z" fill="#2264D7"></path><path d="M58.7325 60.5178C60.069 60.5178 61.1524 59.4343 61.1524 58.0978C61.1524 56.7613 60.069 55.6778 58.7325 55.6778C57.396 55.6778 56.3125 56.7613 56.3125 58.0978C56.3125 59.4343 57.396 60.5178 58.7325 60.5178Z" fill="#2264D7"></path><path d="M86.5225 60.5178C87.8591 60.5178 88.9426 59.4343 88.9426 58.0978C88.9426 56.7613 87.8591 55.6778 86.5225 55.6778C85.186 55.6778 84.1025 56.7613 84.1025 58.0978C84.1025 59.4343 85.186 60.5178 86.5225 60.5178Z" fill="#2264D7"></path><path d="M114.333 60.5178C115.67 60.5178 116.753 59.4343 116.753 58.0978C116.753 56.7613 115.67 55.6778 114.333 55.6778C112.997 55.6778 111.913 56.7613 111.913 58.0978C111.913 59.4343 112.997 60.5178 114.333 60.5178Z" fill="#2264D7"></path><path d="M3.15634 87.7223C4.49286 87.7223 5.57623 86.6388 5.57623 85.3023C5.57623 83.9658 4.49286 82.8823 3.15634 82.8823C1.81982 82.8823 0.736328 83.9658 0.736328 85.3023C0.736328 86.6388 1.81982 87.7223 3.15634 87.7223Z" fill="#2264D7"></path><path d="M33.3644 85.3023C33.3644 86.6333 32.2754 87.7223 30.9444 87.7223C29.6134 87.7223 28.5244 86.6333 28.5244 85.3023C28.5244 83.9713 29.6134 82.8823 30.9444 82.8823C32.2754 82.8823 33.3644 83.9511 33.3644 85.3023Z" fill="#2264D7"></path><path d="M58.7325 87.7223C60.069 87.7223 61.1524 86.6388 61.1524 85.3023C61.1524 83.9658 60.069 82.8823 58.7325 82.8823C57.396 82.8823 56.3125 83.9658 56.3125 85.3023C56.3125 86.6388 57.396 87.7223 58.7325 87.7223Z" fill="#2264D7"></path><path d="M86.5225 87.7223C87.8591 87.7223 88.9426 86.6388 88.9426 85.3023C88.9426 83.9658 87.8591 82.8823 86.5225 82.8823C85.186 82.8823 84.1025 83.9658 84.1025 85.3023C84.1025 86.6388 85.186 87.7223 86.5225 87.7223Z" fill="#2264D7"></path><path d="M114.333 87.7223C115.67 87.7223 116.753 86.6388 116.753 85.3023C116.753 83.9658 115.67 82.8823 114.333 82.8823C112.997 82.8823 111.913 83.9658 111.913 85.3023C111.913 86.6388 112.997 87.7223 114.333 87.7223Z" fill="#2264D7"></path><path d="M3.15634 114.905C4.49286 114.905 5.57623 113.822 5.57623 112.485C5.57623 111.149 4.49286 110.065 3.15634 110.065C1.81982 110.065 0.736328 111.149 0.736328 112.485C0.736328 113.822 1.81982 114.905 3.15634 114.905Z" fill="#2264D7"></path><path d="M33.3644 112.485C33.3644 113.816 32.2754 114.905 30.9444 114.905C29.6134 114.905 28.5244 113.816 28.5244 112.485C28.5244 111.154 29.6134 110.065 30.9444 110.065C32.2754 110.065 33.3644 111.154 33.3644 112.485Z" fill="#2264D7"></path><path d="M58.7325 114.905C60.069 114.905 61.1524 113.822 61.1524 112.485C61.1524 111.149 60.069 110.065 58.7325 110.065C57.396 110.065 56.3125 111.149 56.3125 112.485C56.3125 113.822 57.396 114.905 58.7325 114.905Z" fill="#2264D7"></path><path d="M86.5225 114.905C87.8591 114.905 88.9426 113.822 88.9426 112.485C88.9426 111.149 87.8591 110.065 86.5225 110.065C85.186 110.065 84.1025 111.149 84.1025 112.485C84.1025 113.822 85.186 114.905 86.5225 114.905Z" fill="#2264D7"></path><path d="M114.333 114.905C115.67 114.905 116.753 113.822 116.753 112.485C116.753 111.149 115.67 110.065 114.333 110.065C112.997 110.065 111.913 111.149 111.913 112.485C111.913 113.822 112.997 114.905 114.333 114.905Z" fill="#2264D7"></path></g></g></svg>