<svg xmlns="http://www.w3.org/2000/svg" viewBox="0 0 114.77 38.63"><defs><style>.cls-1{fill:#19aad7;}.cls-2{fill:#09ffff;}.cls-3{font-size:17.87px;fill:#243141;font-family:Montserrat-SemiBold, Montserrat;font-weight:600;}.cls-4{font-size:8.62px;fill:#263145;font-family:Montserrat-Medium, Montserrat;font-weight:500;}</style></defs><g id="Layer_2" data-name="Layer 2"><g id="Layer_1-2" data-name="Layer 1"><polygon class="cls-1" points="1.5 15.71 0 13.63 18.92 0 37.76 13.63 36.26 15.71 18.92 3.16 1.5 15.71"/><path class="cls-2" d="M18.88,32A11.13,11.13,0,1,1,30,20.91,11.14,11.14,0,0,1,18.88,32Zm0-19.7a8.57,8.57,0,1,0,8.57,8.57A8.57,8.57,0,0,0,18.88,12.34Z"/><path class="cls-1" d="M14.64,34.64V37.3l-.11,0A16.94,16.94,0,0,1,2,20.91H4.52A14.38,14.38,0,0,0,14.64,34.64Z"/><path class="cls-1" d="M35.8,20.91A16.94,16.94,0,0,1,23.12,37.29V34.63A14.39,14.39,0,0,0,33.24,20.91Z"/><rect class="cls-2" x="17.6" y="30.76" width="2.56" height="7.87"/><text class="cls-3" transform="translate(43.35 24.2)">Homes</text><text class="cls-4" transform="translate(44.19 34.06) scale(1.27 1)">FINDER</text></g></g></svg>