<svg xmlns="http://www.w3.org/2000/svg" viewBox="0 0 46.3 46.3"><defs><style>.cls-1{fill:#19aad7;}</style></defs><g id="Layer_2" data-name="Layer 2"><g id="Layer_1-2" data-name="Layer 1"><path class="cls-1" d="M18.83,46.3a2.48,2.48,0,0,1-.65-.09,2.14,2.14,0,0,1-1.53-1.68.68.68,0,0,0-.49-.47,2.18,2.18,0,0,1-2.06-2l0-.16h-.16a2.25,2.25,0,0,1-2.34-2.07l0-.17h-.16a2.3,2.3,0,0,1-2-1.17A2.38,2.38,0,0,1,9.57,36l.1-.17-3.6-2.41-.11.1c-.53.45-.85.62-1.18.62a2.4,2.4,0,0,1-1-.31l-1.06-.51L.5,32.25a2.07,2.07,0,0,1-.38-.31L0,31.82v-.37l.06-.06A2.58,2.58,0,0,0,.25,31L5.44,18.78c.23-.52.37-.56.51-.56a1.32,1.32,0,0,1,.52.16l1.11.53c.77.37,1.53.74,2.31,1.1a1.46,1.46,0,0,1,1,1.44c0,.08,0,.34.19.42s.27.14.41.21a3,3,0,0,0,1.15.42c.73,0,1.46,0,2.2,0h2.6a5.81,5.81,0,0,1,2.87.7.77.77,0,0,0,.34.1.83.83,0,0,0,.47-.18l.6-.38a11.37,11.37,0,0,1,1.79-1,3.22,3.22,0,0,1,1.35-.26,9.42,9.42,0,0,1,1.88.25l5.61,1.06.28,0a2.1,2.1,0,0,0,.56-.08c.55-.16,1.09-.34,1.6-.51l.7-.23v-.14c0-.15,0-.31,0-.46a2,2,0,0,1,.09-.76,1.62,1.62,0,0,1,.77-.8c1.15-.47,2.33-.88,3.48-1.28l.79-.27a.89.89,0,0,1,.3-.06c.15,0,.32.05.46.42l4.86,12.71c.15.4.07.59-.34.77L42,33.81a1.59,1.59,0,0,1-.59.12,1.47,1.47,0,0,1-.69-.17.7.7,0,0,0-.3-.06.69.69,0,0,0-.34.08c-.83.56-1.66,1.14-2.47,1.72a.61.61,0,0,0-.26.57,2.3,2.3,0,0,1-.41,2,2.47,2.47,0,0,1-2,1,2.28,2.28,0,0,1-.45,0h-.3l-.12.16a2.72,2.72,0,0,1-1.19,1.83,2.22,2.22,0,0,1-1.32.41,3.07,3.07,0,0,1-.77-.1l-.19,0,0,.2A2.77,2.77,0,0,1,27.9,43.9a2.46,2.46,0,0,1-.6-.07l-.14,0-.07.12a6.26,6.26,0,0,0-.34.55,6.21,6.21,0,0,1-.73,1,2.24,2.24,0,0,1-1.61.69A2.52,2.52,0,0,1,23,45.72L22,45l-.66-.5-.39.45c-.19.23-.38.46-.59.67A2.12,2.12,0,0,1,18.83,46.3Zm1.61-5a1.21,1.21,0,0,0-.85.38q-.84.81-1.65,1.65a1.21,1.21,0,0,0,.84,2h0a1.22,1.22,0,0,0,.83-.35c.61-.58,1.16-1.13,1.68-1.69a1.5,1.5,0,0,0,.29-.49l0-.09a1.23,1.23,0,0,0-.68-1.33A1.15,1.15,0,0,0,20.44,41.27Zm-7.59-7.68a1.73,1.73,0,0,1,.32,0,2.17,2.17,0,0,1,1.93,2l0,.16h.16a2.24,2.24,0,0,1,2.33,2.07l0,.15h.15a2.26,2.26,0,0,1,2.33,2.09l0,.16h.17a2.18,2.18,0,0,1,2,1.11,2.21,2.21,0,0,1-.1,2.33l-.08.15.55.41c.3.23.59.46.9.66a1.41,1.41,0,0,0,.78.25h0a1.54,1.54,0,0,0,1.15-.58,1.39,1.39,0,0,0,0-1.88c-.09-.12-.2-.23-.3-.34L25,42.17c-.35-.41-.21-.64-.07-.77a.43.43,0,0,1,.3-.15.77.77,0,0,1,.48.24l.45.4c.25.22.5.44.76.65a1.48,1.48,0,0,0,1,.38,1.6,1.6,0,0,0,1.26-.7,1.37,1.37,0,0,0,.3-1,1.54,1.54,0,0,0-.64-1l-.34-.24c-.19-.15-.48-.44-.24-.77a.42.42,0,0,1,.35-.2.79.79,0,0,1,.45.18l.63.45,1,.69a1.47,1.47,0,0,0,.84.27,1.58,1.58,0,0,0,1.26-.71,1.41,1.41,0,0,0-.26-2l-.79-.64-.35-.28a.89.89,0,0,1-.37-.53.42.42,0,0,1,.11-.31.4.4,0,0,1,.32-.16.94.94,0,0,1,.56.25l.68.56c.41.34.82.68,1.23,1a2,2,0,0,0,.81.39,1.07,1.07,0,0,0,.25,0,1.49,1.49,0,0,0,1.35-1,1.38,1.38,0,0,0-.55-1.71q-.8-.58-1.59-1.14c-1-.74-2.05-1.47-3.05-2.23a2.28,2.28,0,0,0-1.34-.59,1.55,1.55,0,0,0-.75.21l-.13,0a8,8,0,0,1-1.58.18,4.88,4.88,0,0,1-4.5-2.76.85.85,0,0,0-.1-.14l-.11-.11-.18,0-.45.27-.91.57c-.66.42-1.32.84-2,1.24a3.16,3.16,0,0,1-3.24.14,2.3,2.3,0,0,1-1.36-1.83,2.34,2.34,0,0,1,1-2.06L17.9,25.5l1.36-1,.18-.16.08-.07.06-.16v-.17l-.17-.17-.6-.09a10.62,10.62,0,0,0-1.38-.17c-.67,0-1.33,0-2,0s-1.2,0-1.8,0H13.2a3.93,3.93,0,0,1-2.44-.67l0,0h-.23l-.15.12-4,9.53,4.08,2.73.25-.27A3.09,3.09,0,0,1,12.85,33.59ZM17.92,39a1,1,0,0,0-.69.26c-.62.57-1.24,1.19-1.91,1.92a1,1,0,0,0-.06,1.27,2.52,2.52,0,0,0,.55.49,1.88,1.88,0,0,1,.23.16l.08.07.11,0,.28-.1a1.18,1.18,0,0,0,.48-.22c.57-.55,1.25-1.19,1.88-1.88a1.12,1.12,0,0,0-.08-1.56A1.21,1.21,0,0,0,17.92,39Zm-2.54-2.2a1.24,1.24,0,0,0-.87.39c-.52.51-1,1-1.54,1.55a1.16,1.16,0,0,0-.05,1.73,1.11,1.11,0,0,0,.82.36h0a1.36,1.36,0,0,0,.92-.41c.52-.5,1-1,1.54-1.55a2,2,0,0,0,.31-.51l.1-.19v-.07A1.27,1.27,0,0,0,15.9,37,1.23,1.23,0,0,0,15.38,36.83ZM12.9,34.55a1.11,1.11,0,0,0-.75.3c-.56.52-1.16,1.12-1.81,1.81A1.11,1.11,0,0,0,10.19,38a1.19,1.19,0,0,0,1.18.66l.17,0a1.14,1.14,0,0,0,.46-.24c.75-.7,1.31-1.26,1.82-1.81a1.16,1.16,0,0,0-.07-1.6A1.21,1.21,0,0,0,12.9,34.55Zm17.21-4.13a1.09,1.09,0,0,1,.67.26c1.81,1.33,3.65,2.64,5.48,3.94a.84.84,0,0,0,.47.14A.46.46,0,0,0,37,34.7c.73-.48,1.44-1,2.16-1.49l.78-.54L36,22.82l-1,.31c-.64.21-1.26.42-1.89.61a1.68,1.68,0,0,1-.45.06l-.26,0-5.59-1-1.08-.2a5,5,0,0,0-.92-.09,3.53,3.53,0,0,0-2.11.66c-2.28,1.66-4.55,3.35-6.81,5.05a1.2,1.2,0,0,0-.52,1,1.27,1.27,0,0,0,.64,1,2.39,2.39,0,0,0,1.25.38,2.43,2.43,0,0,0,1.32-.41l3.75-2.34a1.16,1.16,0,0,1,.55-.22c.13,0,.3.07.5.58a4,4,0,0,0,2.89,2.68,5.1,5.1,0,0,0,1,.11,6.37,6.37,0,0,0,2.29-.47A1.28,1.28,0,0,1,30.11,30.42Zm-29,1,3.36,1.62a.61.61,0,0,0,.25.06c.31,0,.43-.29.49-.43.17-.44.85-2.06.85-2.06l3.66-8.77c.28-.67.23-.78-.44-1.1L6.82,19.61l-.27-.11-.31-.12ZM39.42,19.72c-.84.3-1.65.59-2.48.87a.73.73,0,0,0-.44.33.77.77,0,0,0,0,.58c.45,1.08.87,2.17,1.3,3.25l3,7.65c.1.26.2.55.51.55a.69.69,0,0,0,.24-.05l2.5-1.07,1.08-.47L40.59,19.3Z"/><path class="cls-1" d="M13.26,19.21h-.18a.45.45,0,0,1-.43-.48.43.43,0,0,1,.43-.48h1.34V8.86l-.54.28-.49.25a.73.73,0,0,1-.31.07c-.26,0-.43-.19-.43-.5,0-.75,0-1.5,0-2.25v-.8c0-.27.16-.41.47-.57,2.77-1.49,5.54-3,8.3-4.47.36-.19.72-.4,1.07-.61L22.93,0h.43l0,0,.22.15,2,1.07q3.72,2,7.47,4a.94.94,0,0,1,.6,1c0,.52,0,1,0,1.55v1c0,.45-.15.67-.42.67a1.23,1.23,0,0,1-.49-.14l-.89-.46v9.39H33.1c.35,0,.56.18.56.47a.49.49,0,0,1-.55.49H13.26Zm9.9-15a1,1,0,0,0-.46.14C20.45,5.6,18.19,6.82,15.92,8a.85.85,0,0,0-.5.85c0,2.09,0,4.19,0,6.28v2.42c0,.1,0,.21,0,.31l0,.34h4.38V16.58q0-1,0-2.07a3.3,3.3,0,1,1,6.6,0c0,.7,0,1.4,0,2.1v1.64h4.37l0-.17a2.32,2.32,0,0,0,0-.27v-1q0-4,0-8a.86.86,0,0,0-.42-.64L26.85,6.13,23.59,4.37A.82.82,0,0,0,23.16,4.24Zm0,7.92A2.2,2.2,0,0,0,20.88,14c-.06.92-.05,1.86,0,2.78,0,.39,0,.8,0,1.2v.2h4.58V18c0-.4,0-.8,0-1.2,0-.92,0-1.86,0-2.78A2.2,2.2,0,0,0,23.15,12.16Zm0-9a1,1,0,0,1,.51.15c1.46.8,2.93,1.58,4.4,2.37L32.7,8.17V7.43a7.79,7.79,0,0,0,0-.85.88.88,0,0,0-.37-.6q-4.41-2.4-8.82-4.75a.78.78,0,0,0-.35-.08.66.66,0,0,0-.32.07Q18.39,3.59,14,6a.62.62,0,0,0-.35.44c0,.32,0,.65,0,1v.72l.8-.4,1.89-1L22.66,3.3A1,1,0,0,1,23.15,3.16Z"/></g></g></svg>