<svg xmlns="http://www.w3.org/2000/svg" viewBox="0 0 46.14 46.31"><defs><style>.cls-1{fill:#19aad7;}</style></defs><g id="Layer_2" data-name="Layer 2"><g id="Layer_1-2" data-name="Layer 1"><path class="cls-1" d="M41.35,46.31l-.42-.15-3.68-1.37-.11,0a1.1,1.1,0,0,1-.24-.11,1.06,1.06,0,0,1-.15-.53,1.58,1.58,0,0,1,.12-.41c0-.1.08-.22.12-.34l.15-.47h-.49l-.26,0h-.26a1.4,1.4,0,0,0-.38,0L34,43.49c-.71.24-1.42.48-2.14.7a1.47,1.47,0,0,1-.42.06,1.06,1.06,0,0,1-.37-.06q-7.8-2.8-15.59-5.66a2.82,2.82,0,0,1-2-3,2.74,2.74,0,0,1,2.63-2.43,2,2,0,0,1,.64.1c1.08.31,2.15.71,3.19,1.09l1.42.52.95.34.14-.29c.61-1.24,1.73-1.43,3-1.65l2.41-.42c2.24-.4,4.48-.8,6.72-1.18l.26,0a1.92,1.92,0,0,1,.59.1c1.18.41,2.35.84,3.54,1.28l1.54.56.22-.56c0-.14.11-.28.16-.41.16-.35.32-.35.4-.35a.74.74,0,0,1,.23,0c1.42.5,2.84,1,4.25,1.55.26.09.44.21.23.79l-3.32,9.11c-.24.67-.47,1.33-.74,2a1.92,1.92,0,0,1-.33.49l-.1.12Zm-3.71-2.26,3.6,1.31,3.95-10.84-.44-.2-.23-.1-2.91-1ZM16.19,34a1.89,1.89,0,0,0-1.88,1.71,2.08,2.08,0,0,0,1.46,2.06q7.65,2.79,15.3,5.57a1.31,1.31,0,0,0,.41.06,1.42,1.42,0,0,0,.42-.06c.52-.16,1-.33,1.54-.51l1.25-.42.46-.17a3.23,3.23,0,0,1,1.08-.27,1.2,1.2,0,0,1,.73.24l.39.27,2.93-8.08-.66-.27-1-.36c-1-.38-2.09-.76-3.14-1.12a2.11,2.11,0,0,0-.73-.12,2.19,2.19,0,0,0-.36,0c-.56.07-1.12.17-1.67.27l-2.53.45-5.53,1a2.15,2.15,0,0,0-1.42.87A1.9,1.9,0,0,0,25,38a2.59,2.59,0,0,0,.47-.05l4.88-.86,3.28-.58.15.82-.12,0-2,.35-6.18,1.08a3.64,3.64,0,0,1-.56,0,2.73,2.73,0,0,1-2.74-2.43.83.83,0,0,0-.47-.6l-.59-.22c-1.4-.52-2.85-1.06-4.29-1.55A1.86,1.86,0,0,0,16.19,34Z"/><path class="cls-1" d="M23.71,30.32a2.32,2.32,0,0,1-.77-.31l-.73-.36a.74.74,0,0,1-.49-.79c0-1.68,0-3.36,0-5v-2.7l-.51-.1a2.21,2.21,0,0,1-.37-.08,2,2,0,0,1-1.44-2c0-.78,0-1.56,0-2.34,0-.56,0-1.13,0-1.7a1.21,1.21,0,0,0-.12-.61c-.33-.56-.67-1.11-1-1.67l-.59-1-.32.35A5.75,5.75,0,0,1,13,14a4.82,4.82,0,0,1-.65,0,5.33,5.33,0,0,1-4.65-2.82L7,11.34s0,1,0,1.29c0,.52-.1.62-.6.62H.59c-.48,0-.59-.11-.59-.58V.59C0,.12.12,0,.6,0H6.43C6.91,0,7,.12,7,.6l0,1.32.22.49.28-.06.25,0a2.61,2.61,0,0,0,.7-.16l2.23-.95,2.37-1A2.47,2.47,0,0,1,14,0h7.58a5.24,5.24,0,0,1,3.91,1.59L27.87,4q1.86,1.84,3.7,3.71a2.71,2.71,0,0,1,.48,3.55,2.29,2.29,0,0,1-2,1.07H30A1,1,0,0,0,29,13a3.34,3.34,0,0,1-.55.91A1.84,1.84,0,0,0,28,15.25c0,.89,0,1.78,0,2.67v.81A2,2,0,0,1,26.13,21l-.17.06-.21.1-.07.26V23.8c0,1.69,0,3.37,0,5.06a.72.72,0,0,1-.47.79l-.72.35A2.3,2.3,0,0,1,23.71,30.32Zm-1.14-2a1.25,1.25,0,0,0,1.13,1.1,1.22,1.22,0,0,0,1.14-1.11V21.81c0-.1,0-.2,0-.3l0-.46H22.56Zm-2.32-9.44c0,.91.44,1.34,1.37,1.35H25.8a1.2,1.2,0,0,0,1.37-1.35c0-.64,0-1.27,0-1.91v-.76c0-1.63-.08-1.77-1.55-2.41a4.74,4.74,0,0,0-1.91-.44,4.8,4.8,0,0,0-2.64.86l-.56.36.93.41.55.25a.92.92,0,0,0,.39.09A1,1,0,0,0,23,15a1.08,1.08,0,0,1,.73-.27,1.17,1.17,0,0,1,.94.47,1.15,1.15,0,0,1-.25,1.67,1.11,1.11,0,0,1-.69.24,1.2,1.2,0,0,1-1-.53,1.24,1.24,0,0,0-.43-.42l-1.15-.44-.91-.34S20.24,18.17,20.25,18.85Zm-.71-7.91-.31,0L18.5,11l1.31,3,.36-.24a6.38,6.38,0,0,1,3.57-1.23,6,6,0,0,1,3.41,1.17l.29.19.31-.42.18-.25c.63-1,.61-1.14-.19-1.94L25.58,9.08l-.24.4A2.89,2.89,0,0,1,22.56,11h-.25c-.36,0-.72,0-1.08,0ZM7.84,10.1c.65,0,.65,0,.79.65a2.22,2.22,0,0,0,1,1.4,5.54,5.54,0,0,0,3.19,1.06,6.07,6.07,0,0,0,2.5-.58,2.73,2.73,0,0,0,1.78-2c.1-.51.15-.55.68-.55h5.05a1.91,1.91,0,0,0,1.9-1.19,1.82,1.82,0,0,0-.14-1.74,2.07,2.07,0,0,0-1.75-.9h-8V5.43h5.54a2.44,2.44,0,0,0,.94-.21,5.63,5.63,0,0,1,2.46-.55,5.76,5.76,0,0,1,5.44,3.76,10.29,10.29,0,0,1,.39,1.82c.05.31.1.62.16.93l.05.3h.31a1.63,1.63,0,0,0,1.59-1.66,2.17,2.17,0,0,0-.76-1.63L29.44,6.74Q27.21,4.52,25,2.28A4.64,4.64,0,0,0,21.52.84H14.17a2.86,2.86,0,0,0-.91.18c-.74.26-1.46.6-2.15.92a13,13,0,0,1-3.73,1.3l-.31,0v6.8h.77Zm-7,2.29H6.17V.88H.86ZM25.11,6.32a6.55,6.55,0,0,0,2.38,3.51l.56.53.62.61V10.1a4.76,4.76,0,0,0-3.1-4.19L25,5.76Z"/></g></g></svg>