<svg xmlns="http://www.w3.org/2000/svg" viewBox="0 0 51.41 47"><defs><style>.cls-1{fill:#19aad7;}</style></defs><g id="Layer_2" data-name="Layer 2"><g id="Layer_1-2" data-name="Layer 1"><path class="cls-1" d="M20.13,47a7.34,7.34,0,0,1-2.72-.51c-2.29-.92-4.63-1.79-6.9-2.64l-3-1.15-.08.39c0,.12,0,.23-.06.34a2.37,2.37,0,0,1-2.25,2.08c-.47,0-1,.05-1.43.05s-.81,0-1.22,0A2.41,2.41,0,0,1,.1,43.73,1.11,1.11,0,0,0,0,43.54V41.61c.16-.26.32-.38.51-.38l.18,0c.29.09.4.29.4.78v.26c0,.2,0,.41,0,.61a1.46,1.46,0,0,0,1.59,1.57H4.6a1.5,1.5,0,0,0,1.68-1.7v-17c0-1.17-.53-1.69-1.71-1.7H3c-1.39,0-1.86.47-1.86,1.85V36.8c0,.46-.06.7-.37.82a.79.79,0,0,1-.2,0A.73.73,0,0,1,0,37.33V25.06a2.22,2.22,0,0,0,.2-.35,4,4,0,0,1,.51-.88A2.31,2.31,0,0,1,2.58,23h2a2.53,2.53,0,0,1,2.77,2.62l0,.53H9.28c.4,0,.8,0,1.2.08l.75,0v-7.1l-.85.78-.59.56-1.07,1a2.68,2.68,0,0,1-1.79.75,2.36,2.36,0,0,1-1.72-.78,2.4,2.4,0,0,1,.18-3.48c1.85-1.77,3.72-3.52,5.59-5.27a1.21,1.21,0,0,0,.42-1c0-1.83,0-3.66,0-5.49V5.54a1.49,1.49,0,0,1,.3-1.11,1.57,1.57,0,0,1,1.12-.3h3.33c1.15,0,1.45.3,1.46,1.46v.94l.76-.68L23.57.92A2.89,2.89,0,0,1,25.5,0a2.89,2.89,0,0,1,1.94.92l10.41,9.75c.16.15.5.56.17.91a.46.46,0,0,1-.34.15.91.91,0,0,1-.58-.29L26.72,1.73a1.8,1.8,0,0,0-1.21-.64,1.82,1.82,0,0,0-1.22.64l-18,16.93a2.94,2.94,0,0,0-.49.57A1.32,1.32,0,0,0,6,20.79a1.37,1.37,0,0,0,1,.43,1.15,1.15,0,0,0,.6-.16,3.66,3.66,0,0,0,.71-.56L24.78,5c.33-.31.55-.49.73-.49s.4.18.72.48l16.65,15.6a3.5,3.5,0,0,0,.55.43,1.3,1.3,0,0,0,.67.19,1.35,1.35,0,0,0,1-.42,1.29,1.29,0,0,0,.15-1.6,3.15,3.15,0,0,0-.49-.57L41,15.06a2.58,2.58,0,0,1-.36-.38.46.46,0,0,1,0-.66.51.51,0,0,1,.35-.17.67.67,0,0,1,.29.08.74.74,0,0,1,.16.12l1.27,1.18c1,1,2.09,1.95,3.11,2.95a2.36,2.36,0,0,1,0,3.29,2.43,2.43,0,0,1-1.77.79,2.37,2.37,0,0,1-1.52-.55c-.47-.39-.93-.82-1.37-1.24l-.63-.6-.75-.64V33.72l.84-.54L42.46,32c1.37-.92,2.75-1.85,4.13-2.76a3.38,3.38,0,0,1,1.87-.59,2.91,2.91,0,0,1,2.61,1.62,2.86,2.86,0,0,1-.51,3.4c-1.16,1.1-2.37,2.19-3.54,3.24L45.77,38c-.51.47-1,.93-1.55,1.39-1.07.94-2.17,1.92-3.22,2.93a9.51,9.51,0,0,1-5.64,2.59c-4.51.59-8.92,1.25-13.81,2A8.83,8.83,0,0,1,20.13,47ZM8.62,27.27l-1,0H7.41l0,.3a1.28,1.28,0,0,0,0,.19v3.05c0,3.38,0,6.77,0,10.15a.73.73,0,0,0,.58.74l10.57,4a1.94,1.94,0,0,0,.62.17l.72,0c.87,0,1.77-.1,2.65-.22,1.87-.25,3.74-.53,5.61-.8,2.25-.33,4.49-.65,6.74-1A8.91,8.91,0,0,0,40,41.77c2-1.86,4.08-3.71,6.09-5.51L49,33.69c.29-.25.57-.51.83-.78a1.9,1.9,0,0,0,.33-2.15,1.81,1.81,0,0,0-1.61-1.05,1.06,1.06,0,0,0-.25,0,2.92,2.92,0,0,0-1.18.47l-4.45,3c-1.8,1.2-3.59,2.4-5.4,3.59a1.62,1.62,0,0,1-.87.26c-2.53-.17-5.22-.37-8.29-.62l-8.56-.74-2.22-.19c-.44,0-.7-.26-.68-.59s.26-.5.65-.5h.12l4.93.44,9.82.86h.76v-.2A3.36,3.36,0,0,0,30,32.14l-.71-.08c-1.79-.23-3.64-.46-5.47-.62A19.29,19.29,0,0,1,15.63,29,13.65,13.65,0,0,0,8.62,27.27ZM29,20.18a1.09,1.09,0,0,1,1.09.7,2.41,2.41,0,0,1,.1.76c0,2.93,0,5.86,0,8.79,0,.29,0,.64.47.78A4.42,4.42,0,0,1,34,35.29c0,.33.15.55.56.58s.9.09,1.19.09c.79,0,1.15-.24,2.2-1l.11-.08.2-.13a.86.86,0,0,0,.5-.92q0-7.58,0-15.17a1.2,1.2,0,0,0-.43-1l-4.46-4.18L25.53,5.77,25,6.2,23.45,7.7q-5.39,5.07-10.77,10.16a1.15,1.15,0,0,0-.32.79c0,1.91,0,3.83,0,5.74V26.6l.16,0a18.73,18.73,0,0,1,4.76,2,11.83,11.83,0,0,0,3.37,1.23l.24,0V21.54c0-.62.21-1.35,1.21-1.35H29Zm-7,10L29.1,31V21.27H22ZM12.47,11.05l.24-.05a.48.48,0,0,0,.24-.08l.19-.18L16.26,7.8a.75.75,0,0,0,.23-.47c0-.47,0-.93,0-1.4V5.25h-4Z"/></g></g></svg>