<svg xmlns="http://www.w3.org/2000/svg" viewBox="0 0 83.85 108.14"><defs><style>.cls-1{fill:#f0f1f2;}</style></defs><g id="Layer_2" data-name="Layer 2"><g id="Layer_1-2" data-name="Layer 1"><rect class="cls-1" width="4.07" height="4.07" transform="translate(4.07) rotate(90)"/><rect class="cls-1" x="15.96" width="4.07" height="4.07" transform="translate(20.03 -15.96) rotate(90)"/><rect class="cls-1" x="31.91" width="4.07" height="4.07" transform="translate(35.99 -31.91) rotate(90)"/><rect class="cls-1" x="47.87" width="4.07" height="4.07" transform="translate(51.94 -47.87) rotate(90)"/><rect class="cls-1" x="63.83" width="4.07" height="4.07" transform="translate(67.9 -63.83) rotate(90)"/><rect class="cls-1" x="79.78" width="4.07" height="4.07" transform="translate(83.85 -79.78) rotate(90)"/><rect class="cls-1" y="14.87" width="4.07" height="4.07" transform="translate(18.94 14.87) rotate(90)"/><rect class="cls-1" x="15.96" y="14.87" width="4.07" height="4.07" transform="translate(34.9 -1.09) rotate(90)"/><rect class="cls-1" x="31.91" y="14.87" width="4.07" height="4.07" transform="translate(50.85 -17.05) rotate(90)"/><rect class="cls-1" x="47.87" y="14.87" width="4.07" height="4.07" transform="translate(66.81 -33) rotate(90)"/><rect class="cls-1" x="63.83" y="14.87" width="4.07" height="4.07" transform="translate(82.76 -48.96) rotate(90)"/><rect class="cls-1" x="79.78" y="14.87" width="4.07" height="4.07" transform="translate(98.72 -64.92) rotate(90)"/><rect class="cls-1" y="29.73" width="4.07" height="4.07" transform="translate(33.81 29.73) rotate(90)"/><rect class="cls-1" x="15.96" y="29.73" width="4.07" height="4.07" transform="translate(49.76 13.78) rotate(90)"/><rect class="cls-1" x="31.91" y="29.73" width="4.07" height="4.07" transform="translate(65.72 -2.18) rotate(90)"/><rect class="cls-1" x="47.87" y="29.73" width="4.07" height="4.07" transform="translate(81.67 -18.14) rotate(90)"/><rect class="cls-1" x="63.83" y="29.73" width="4.07" height="4.07" transform="translate(97.63 -34.09) rotate(90)"/><rect class="cls-1" x="79.78" y="29.73" width="4.07" height="4.07" transform="translate(113.59 -50.05) rotate(90)"/><rect class="cls-1" y="44.6" width="4.07" height="4.07" transform="translate(48.67 44.6) rotate(90)"/><rect class="cls-1" x="15.96" y="44.6" width="4.07" height="4.07" transform="translate(64.63 28.64) rotate(90)"/><rect class="cls-1" x="31.91" y="44.6" width="4.07" height="4.07" transform="translate(80.58 12.69) rotate(90)"/><rect class="cls-1" x="47.87" y="44.6" width="4.07" height="4.07" transform="translate(96.54 -3.27) rotate(90)"/><rect class="cls-1" x="63.83" y="44.6" width="4.07" height="4.07" transform="translate(112.5 -19.23) rotate(90)"/><rect class="cls-1" x="79.78" y="44.6" width="4.07" height="4.07" transform="translate(128.45 -35.18) rotate(90)"/><rect class="cls-1" y="59.47" width="4.07" height="4.07" transform="translate(63.54 59.47) rotate(90)"/><rect class="cls-1" x="15.96" y="59.47" width="4.07" height="4.07" transform="translate(79.49 43.51) rotate(90)"/><rect class="cls-1" x="31.91" y="59.47" width="4.07" height="4.07" transform="translate(95.45 27.55) rotate(90)"/><rect class="cls-1" x="47.87" y="59.47" width="4.07" height="4.07" transform="translate(111.41 11.6) rotate(90)"/><rect class="cls-1" x="63.83" y="59.47" width="4.07" height="4.07" transform="translate(127.36 -4.36) rotate(90)"/><rect class="cls-1" x="79.78" y="59.47" width="4.07" height="4.07" transform="translate(143.32 -20.32) rotate(90)"/><rect class="cls-1" y="74.33" width="4.07" height="4.07" transform="translate(78.4 74.33) rotate(90)"/><rect class="cls-1" x="15.96" y="74.33" width="4.07" height="4.07" transform="translate(94.36 58.38) rotate(90)"/><rect class="cls-1" x="31.91" y="74.33" width="4.07" height="4.07" transform="translate(110.32 42.42) rotate(90)"/><rect class="cls-1" x="47.87" y="74.33" width="4.07" height="4.07" transform="translate(126.27 26.46) rotate(90)"/><rect class="cls-1" x="63.83" y="74.33" width="4.07" height="4.07" transform="translate(142.23 10.51) rotate(90)"/><rect class="cls-1" x="79.78" y="74.33" width="4.07" height="4.07" transform="translate(158.19 -5.45) rotate(90)"/><rect class="cls-1" y="89.2" width="4.07" height="4.07" transform="translate(93.27 89.2) rotate(90)"/><rect class="cls-1" x="15.96" y="89.2" width="4.07" height="4.07" transform="translate(109.23 73.24) rotate(90)"/><rect class="cls-1" x="31.91" y="89.2" width="4.07" height="4.07" transform="translate(125.18 57.29) rotate(90)"/><rect class="cls-1" x="47.87" y="89.2" width="4.07" height="4.07" transform="translate(141.14 41.33) rotate(90)"/><rect class="cls-1" x="63.83" y="89.2" width="4.07" height="4.07" transform="translate(157.1 25.37) rotate(90)"/><rect class="cls-1" x="79.78" y="89.2" width="4.07" height="4.07" transform="translate(173.05 9.42) rotate(90)"/><rect class="cls-1" y="104.06" width="4.07" height="4.07" transform="translate(108.14 104.06) rotate(90)"/><rect class="cls-1" x="15.96" y="104.06" width="4.07" height="4.07" transform="translate(124.09 88.11) rotate(90)"/><rect class="cls-1" x="31.91" y="104.06" width="4.07" height="4.07" transform="translate(140.05 72.15) rotate(90)"/><rect class="cls-1" x="47.87" y="104.06" width="4.07" height="4.07" transform="translate(156.01 56.2) rotate(90)"/><rect class="cls-1" x="63.83" y="104.06" width="4.07" height="4.07" transform="translate(171.96 40.24) rotate(90)"/><rect class="cls-1" x="79.78" y="104.06" width="4.07" height="4.07" transform="translate(187.92 24.28) rotate(90)"/></g></g></svg>