<svg xmlns="http://www.w3.org/2000/svg" viewBox="0 0 286.11 96.31"><defs><style>.cls-1,.cls-2,.cls-3{fill:#fff;}.cls-2{font-size:44.54px;font-family:Montserrat-SemiBold, Montserrat;font-weight:600;}.cls-3{font-size:21.49px;font-family:Montserrat-Medium, Montserrat;font-weight:500;}</style></defs><g id="Layer_2" data-name="Layer 2"><g id="Layer_1-2" data-name="Layer 1"><polygon class="cls-1" points="3.73 39.16 0 33.98 47.17 0 94.14 33.98 90.4 39.16 47.16 7.88 3.73 39.16"/><path class="cls-1" d="M47.07,79.88A27.76,27.76,0,1,1,74.82,52.13,27.79,27.79,0,0,1,47.07,79.88Zm0-49.12A21.37,21.37,0,1,0,68.44,52.13,21.4,21.4,0,0,0,47.07,30.76Z"/><path class="cls-1" d="M36.51,86.35V93l-.29-.07A42.23,42.23,0,0,1,4.88,52.13h6.39A35.84,35.84,0,0,0,36.51,86.35Z"/><path class="cls-1" d="M89.26,52.13A42.25,42.25,0,0,1,57.63,93V86.34A35.88,35.88,0,0,0,82.87,52.13Z"/><rect class="cls-1" x="43.88" y="76.69" width="6.39" height="19.62"/><text class="cls-2" transform="translate(108.07 60.33)">Homes</text><text class="cls-3" transform="translate(110.16 84.92) scale(1.27 1)">FINDER</text></g></g></svg>